<mxfile host="Electron" agent="Mozilla/5.0 (X11; Linux x86_64) AppleWebKit/537.36 (KHTML, like Gecko) draw.io/24.7.5 Chrome/126.0.6478.183 Electron/31.3.0 Safari/537.36" version="24.7.5">
  <diagram name="Page-1" id="2YBvvXClWsGukQMizWep">
    <mxGraphModel dx="1615" dy="858" grid="1" gridSize="10" guides="1" tooltips="1" connect="1" arrows="1" fold="1" page="1" pageScale="1" pageWidth="850" pageHeight="1100" math="0" shadow="0">
      <root>
        <mxCell id="0" />
        <mxCell id="1" parent="0" />
        <mxCell id="aM9ryv3xv72pqoxQDRHE-1" value="Infra" style="shape=umlLifeline;perimeter=lifelinePerimeter;whiteSpace=wrap;html=1;container=0;dropTarget=0;collapsible=0;recursiveResize=0;outlineConnect=0;portConstraint=eastwest;newEdgeStyle={&quot;edgeStyle&quot;:&quot;elbowEdgeStyle&quot;,&quot;elbow&quot;:&quot;vertical&quot;,&quot;curved&quot;:0,&quot;rounded&quot;:0};" parent="1" vertex="1">
          <mxGeometry x="100" y="40" width="100" height="730" as="geometry" />
        </mxCell>
        <mxCell id="aM9ryv3xv72pqoxQDRHE-2" value="" style="html=1;points=[];perimeter=orthogonalPerimeter;outlineConnect=0;targetShapes=umlLifeline;portConstraint=eastwest;newEdgeStyle={&quot;edgeStyle&quot;:&quot;elbowEdgeStyle&quot;,&quot;elbow&quot;:&quot;vertical&quot;,&quot;curved&quot;:0,&quot;rounded&quot;:0};" parent="aM9ryv3xv72pqoxQDRHE-1" vertex="1">
          <mxGeometry x="45" y="290" width="10" height="90" as="geometry" />
        </mxCell>
        <mxCell id="CwJd92zBgyKHX__frGb2-45" value="" style="html=1;points=[[0,0,0,0,5],[0,1,0,0,-5],[1,0,0,0,5],[1,1,0,0,-5]];perimeter=orthogonalPerimeter;outlineConnect=0;targetShapes=umlLifeline;portConstraint=eastwest;newEdgeStyle={&quot;curved&quot;:0,&quot;rounded&quot;:0};" parent="aM9ryv3xv72pqoxQDRHE-1" vertex="1">
          <mxGeometry x="45" y="440" width="10" height="270" as="geometry" />
        </mxCell>
        <mxCell id="6XYIYXBxGy6aB3ax5ImO-21" value="" style="html=1;points=[[0,0,0,0,5],[0,1,0,0,-5],[1,0,0,0,5],[1,1,0,0,-5]];perimeter=orthogonalPerimeter;outlineConnect=0;targetShapes=umlLifeline;portConstraint=eastwest;newEdgeStyle={&quot;curved&quot;:0,&quot;rounded&quot;:0};" parent="aM9ryv3xv72pqoxQDRHE-1" vertex="1">
          <mxGeometry x="45" y="70" width="10" height="40" as="geometry" />
        </mxCell>
        <mxCell id="6XYIYXBxGy6aB3ax5ImO-24" value="&lt;span style=&quot;text-align: left;&quot;&gt;Boot DA&lt;/span&gt;" style="html=1;verticalAlign=bottom;endArrow=block;curved=0;rounded=0;" parent="aM9ryv3xv72pqoxQDRHE-1" source="aM9ryv3xv72pqoxQDRHE-2" target="CwJd92zBgyKHX__frGb2-45" edge="1">
          <mxGeometry width="80" relative="1" as="geometry">
            <mxPoint x="140" y="400" as="sourcePoint" />
            <mxPoint x="135" y="450" as="targetPoint" />
            <Array as="points">
              <mxPoint x="100" y="380" />
              <mxPoint x="100" y="450" />
            </Array>
          </mxGeometry>
        </mxCell>
        <mxCell id="aM9ryv3xv72pqoxQDRHE-5" value="Disk Registry" style="shape=umlLifeline;perimeter=lifelinePerimeter;whiteSpace=wrap;html=1;container=0;dropTarget=0;collapsible=0;recursiveResize=0;outlineConnect=0;portConstraint=eastwest;newEdgeStyle={&quot;edgeStyle&quot;:&quot;elbowEdgeStyle&quot;,&quot;elbow&quot;:&quot;vertical&quot;,&quot;curved&quot;:0,&quot;rounded&quot;:0};" parent="1" vertex="1">
          <mxGeometry x="300" y="40" width="100" height="730" as="geometry" />
        </mxCell>
        <mxCell id="CwJd92zBgyKHX__frGb2-6" value="" style="html=1;points=[[0,0,0,0,5],[0,1,0,0,-5],[1,0,0,0,5],[1,1,0,0,-5]];perimeter=orthogonalPerimeter;outlineConnect=0;targetShapes=umlLifeline;portConstraint=eastwest;newEdgeStyle={&quot;curved&quot;:0,&quot;rounded&quot;:0};" parent="aM9ryv3xv72pqoxQDRHE-5" vertex="1">
          <mxGeometry x="45" y="70" width="10" height="230" as="geometry" />
        </mxCell>
        <mxCell id="CwJd92zBgyKHX__frGb2-18" value="" style="html=1;points=[[0,0,0,0,5],[0,1,0,0,-5],[1,0,0,0,5],[1,1,0,0,-5]];perimeter=orthogonalPerimeter;outlineConnect=0;targetShapes=umlLifeline;portConstraint=eastwest;newEdgeStyle={&quot;curved&quot;:0,&quot;rounded&quot;:0};" parent="aM9ryv3xv72pqoxQDRHE-5" vertex="1">
          <mxGeometry x="50" y="140" width="10" height="50" as="geometry" />
        </mxCell>
        <mxCell id="SXcdiKqlx7OtoO0jn4dH-4" value="" style="html=1;points=[[0,0,0,0,5],[0,1,0,0,-5],[1,0,0,0,5],[1,1,0,0,-5]];perimeter=orthogonalPerimeter;outlineConnect=0;targetShapes=umlLifeline;portConstraint=eastwest;newEdgeStyle={&quot;curved&quot;:0,&quot;rounded&quot;:0};" parent="aM9ryv3xv72pqoxQDRHE-5" vertex="1">
          <mxGeometry x="45" y="580" width="10" height="40" as="geometry" />
        </mxCell>
        <mxCell id="6XYIYXBxGy6aB3ax5ImO-15" value="" style="html=1;points=[[0,0,0,0,5],[0,1,0,0,-5],[1,0,0,0,5],[1,1,0,0,-5]];perimeter=orthogonalPerimeter;outlineConnect=0;targetShapes=umlLifeline;portConstraint=eastwest;newEdgeStyle={&quot;curved&quot;:0,&quot;rounded&quot;:0};" parent="aM9ryv3xv72pqoxQDRHE-5" vertex="1">
          <mxGeometry x="50" y="250" width="10" height="40" as="geometry" />
        </mxCell>
        <mxCell id="6XYIYXBxGy6aB3ax5ImO-42" value="&lt;div style=&quot;text-align: left;&quot;&gt;ChangeAgentState&lt;/div&gt;" style="html=1;verticalAlign=bottom;endArrow=block;curved=0;rounded=0;entryX=1;entryY=0;entryDx=0;entryDy=5;entryPerimeter=0;fontSize=12;" parent="aM9ryv3xv72pqoxQDRHE-5" source="CwJd92zBgyKHX__frGb2-6" target="CwJd92zBgyKHX__frGb2-18" edge="1">
          <mxGeometry x="0.0303" width="80" relative="1" as="geometry">
            <mxPoint x="60" y="110" as="sourcePoint" />
            <mxPoint x="65" y="150" as="targetPoint" />
            <Array as="points">
              <mxPoint x="125" y="110" />
              <mxPoint x="125" y="145" />
            </Array>
            <mxPoint as="offset" />
          </mxGeometry>
        </mxCell>
        <mxCell id="aM9ryv3xv72pqoxQDRHE-7" value="REMOVE_HOST" style="html=1;verticalAlign=bottom;endArrow=block;edgeStyle=elbowEdgeStyle;elbow=vertical;curved=0;rounded=0;" parent="1" source="6XYIYXBxGy6aB3ax5ImO-21" target="CwJd92zBgyKHX__frGb2-6" edge="1">
          <mxGeometry relative="1" as="geometry">
            <mxPoint x="150" y="120" as="sourcePoint" />
            <Array as="points">
              <mxPoint x="265" y="120" />
            </Array>
            <mxPoint x="340" y="120" as="targetPoint" />
          </mxGeometry>
        </mxCell>
        <mxCell id="H9zueEprOhz8H6vKILK5-17" value="Disk Agent" style="shape=umlLifeline;perimeter=lifelinePerimeter;whiteSpace=wrap;html=1;container=1;dropTarget=0;collapsible=0;recursiveResize=0;outlineConnect=0;portConstraint=eastwest;newEdgeStyle={&quot;edgeStyle&quot;:&quot;elbowEdgeStyle&quot;,&quot;elbow&quot;:&quot;vertical&quot;,&quot;curved&quot;:0,&quot;rounded&quot;:0};" parent="1" vertex="1">
          <mxGeometry x="680" y="40" width="170" height="360" as="geometry" />
        </mxCell>
        <mxCell id="CwJd92zBgyKHX__frGb2-28" value="AGENT_STATE_WARNING" style="rounded=1;dashed=0;point=[];connectable=0;targetShapes=umlLifeline;html=1;" parent="H9zueEprOhz8H6vKILK5-17" vertex="1">
          <mxGeometry x="10" y="170" width="160" height="30" as="geometry" />
        </mxCell>
        <mxCell id="CwJd92zBgyKHX__frGb2-22" value="" style="html=1;verticalAlign=bottom;endArrow=open;dashed=1;endSize=8;curved=0;rounded=0;exitX=0;exitY=1;exitDx=0;exitDy=-5;exitPerimeter=0;" parent="1" source="CwJd92zBgyKHX__frGb2-6" target="aM9ryv3xv72pqoxQDRHE-2" edge="1">
          <mxGeometry relative="1" as="geometry">
            <mxPoint x="150" y="340" as="targetPoint" />
            <mxPoint x="345" y="335" as="sourcePoint" />
          </mxGeometry>
        </mxCell>
        <mxCell id="CwJd92zBgyKHX__frGb2-36" value="Host poweroff" style="html=1;verticalAlign=bottom;endArrow=block;curved=0;rounded=0;" parent="1" source="aM9ryv3xv72pqoxQDRHE-2" target="CwJd92zBgyKHX__frGb2-39" edge="1">
          <mxGeometry relative="1" as="geometry">
            <mxPoint x="270" y="410" as="sourcePoint" />
            <mxPoint x="490" y="360" as="targetPoint" />
          </mxGeometry>
        </mxCell>
        <mxCell id="SXcdiKqlx7OtoO0jn4dH-5" value="Register" style="html=1;verticalAlign=bottom;endArrow=block;curved=0;rounded=0;entryX=1;entryY=0;entryDx=0;entryDy=5;entryPerimeter=0;exitX=0;exitY=1;exitDx=0;exitDy=-5;exitPerimeter=0;" parent="1" source="CwJd92zBgyKHX__frGb2-56" target="SXcdiKqlx7OtoO0jn4dH-4" edge="1">
          <mxGeometry relative="1" as="geometry">
            <mxPoint x="270" y="585" as="sourcePoint" />
            <mxPoint x="450" y="570" as="targetPoint" />
          </mxGeometry>
        </mxCell>
        <mxCell id="8qwJdJDoc-sO6U1SvDWc-6" value="" style="group" parent="1" vertex="1" connectable="0">
          <mxGeometry x="680" y="500" width="170" height="270" as="geometry" />
        </mxCell>
        <mxCell id="CwJd92zBgyKHX__frGb2-49" value="Disk Agent" style="rounded=0;dashed=0;whiteSpace=wrap;html=1;" parent="8qwJdJDoc-sO6U1SvDWc-6" vertex="1">
          <mxGeometry width="170" height="38.57142857142857" as="geometry" />
        </mxCell>
        <mxCell id="CwJd92zBgyKHX__frGb2-51" value="" style="html=1;verticalAlign=bottom;startArrow=none;endArrow=none;dashed=1;rounded=0;" parent="8qwJdJDoc-sO6U1SvDWc-6" target="CwJd92zBgyKHX__frGb2-49" edge="1">
          <mxGeometry relative="1" as="geometry">
            <mxPoint x="85" y="270" as="sourcePoint" />
          </mxGeometry>
        </mxCell>
        <mxCell id="CwJd92zBgyKHX__frGb2-56" value="" style="html=1;points=[[0,0,0,0,5],[0,1,0,0,-5],[1,0,0,0,5],[1,1,0,0,-5]];perimeter=orthogonalPerimeter;outlineConnect=0;targetShapes=umlLifeline;portConstraint=eastwest;newEdgeStyle={&quot;curved&quot;:0,&quot;rounded&quot;:0};" parent="8qwJdJDoc-sO6U1SvDWc-6" vertex="1">
          <mxGeometry x="78.5" y="71.36" width="13" height="58.64" as="geometry" />
        </mxCell>
        <mxCell id="6XYIYXBxGy6aB3ax5ImO-25" value="&lt;span style=&quot;color: rgb(240, 240, 240); font-family: Helvetica; font-size: 11px; font-style: normal; font-variant-ligatures: normal; font-variant-caps: normal; font-weight: 400; letter-spacing: normal; orphans: 2; text-align: left; text-indent: 0px; text-transform: none; widows: 2; word-spacing: 0px; -webkit-text-stroke-width: 0px; white-space: nowrap; background-color: rgb(24, 20, 29); text-decoration-thickness: initial; text-decoration-style: initial; text-decoration-color: initial; display: inline !important; float: none;&quot;&gt;Discovery&lt;/span&gt;" style="html=1;verticalAlign=bottom;endArrow=block;curved=0;rounded=0;" parent="8qwJdJDoc-sO6U1SvDWc-6" target="CwJd92zBgyKHX__frGb2-56" edge="1">
          <mxGeometry x="0.1236" width="80" relative="1" as="geometry">
            <mxPoint x="85" y="48.214285714285715" as="sourcePoint" />
            <mxPoint x="90" y="77.14285714285714" as="targetPoint" />
            <Array as="points">
              <mxPoint x="140" y="48.214285714285715" />
              <mxPoint x="140" y="77.14285714285714" />
            </Array>
            <mxPoint as="offset" />
          </mxGeometry>
        </mxCell>
        <mxCell id="CwJd92zBgyKHX__frGb2-39" value="" style="shape=umlDestroy;whiteSpace=wrap;html=1;strokeWidth=3;targetShapes=umlLifeline;" parent="1" vertex="1">
          <mxGeometry x="750" y="390" width="30" height="30" as="geometry" />
        </mxCell>
        <mxCell id="6XYIYXBxGy6aB3ax5ImO-12" value="" style="html=1;verticalAlign=bottom;endArrow=block;curved=0;rounded=0;exitX=1;exitY=1;exitDx=0;exitDy=-5;exitPerimeter=0;" parent="1" source="CwJd92zBgyKHX__frGb2-18" edge="1">
          <mxGeometry x="-0.7314" relative="1" as="geometry">
            <mxPoint x="380" y="230" as="sourcePoint" />
            <mxPoint x="689" y="225" as="targetPoint" />
            <mxPoint as="offset" />
          </mxGeometry>
        </mxCell>
        <mxCell id="8qwJdJDoc-sO6U1SvDWc-11" value="Disk Agent&#39;s state is stored in Disk Registry, there&#39;s no actual message sent" style="shape=note;size=20;whiteSpace=wrap;html=1;fontSize=8;verticalAlign=middle;" parent="1" vertex="1">
          <mxGeometry x="480" y="195" width="120" height="50" as="geometry" />
        </mxCell>
        <mxCell id="6XYIYXBxGy6aB3ax5ImO-14" value="&lt;span style=&quot;text-align: left; font-size: 12px;&quot;&gt;StartMigration&lt;/span&gt;" style="html=1;verticalAlign=bottom;endArrow=block;curved=0;rounded=0;exitX=1;exitY=1;exitDx=0;exitDy=-5;exitPerimeter=0;entryX=1;entryY=0;entryDx=0;entryDy=5;entryPerimeter=0;fontSize=12;" parent="1" target="6XYIYXBxGy6aB3ax5ImO-15" edge="1">
          <mxGeometry width="80" relative="1" as="geometry">
            <mxPoint x="355" y="255" as="sourcePoint" />
            <mxPoint x="400" y="295" as="targetPoint" />
            <Array as="points">
              <mxPoint x="420" y="255" />
              <mxPoint x="420" y="295" />
            </Array>
          </mxGeometry>
        </mxCell>
        <mxCell id="6XYIYXBxGy6aB3ax5ImO-18" value="" style="group" parent="1" vertex="1" connectable="0">
          <mxGeometry x="110" y="160" width="240" height="190" as="geometry" />
        </mxCell>
        <mxCell id="6XYIYXBxGy6aB3ax5ImO-16" value="loop" style="shape=umlFrame;whiteSpace=wrap;html=1;pointerEvents=0;fontSize=8;width=40;height=20;" parent="6XYIYXBxGy6aB3ax5ImO-18" vertex="1">
          <mxGeometry x="16.551724137931036" y="10.555555555555555" width="223.44827586206895" height="179.44444444444446" as="geometry" />
        </mxCell>
        <mxCell id="6XYIYXBxGy6aB3ax5ImO-17" value="[until disks migrated]" style="text;html=1;align=center;verticalAlign=middle;resizable=0;points=[];autosize=1;strokeColor=none;fillColor=none;fontSize=8;" parent="6XYIYXBxGy6aB3ax5ImO-18" vertex="1">
          <mxGeometry x="49.65517241379309" y="21.111111111111104" width="100" height="20" as="geometry" />
        </mxCell>
        <mxCell id="6XYIYXBxGy6aB3ax5ImO-19" value="" style="html=1;verticalAlign=bottom;endArrow=open;dashed=1;endSize=8;curved=0;rounded=0;entryX=1;entryY=1;entryDx=0;entryDy=-5;entryPerimeter=0;" parent="1" source="CwJd92zBgyKHX__frGb2-6" target="6XYIYXBxGy6aB3ax5ImO-21" edge="1">
          <mxGeometry relative="1" as="geometry">
            <mxPoint x="170" y="140" as="targetPoint" />
            <mxPoint x="340" y="140" as="sourcePoint" />
          </mxGeometry>
        </mxCell>
        <mxCell id="aM9ryv3xv72pqoxQDRHE-3" value="Need to reboot host" style="html=1;verticalAlign=bottom;startArrow=oval;endArrow=block;startSize=8;edgeStyle=elbowEdgeStyle;elbow=vertical;curved=0;rounded=0;" parent="1" target="6XYIYXBxGy6aB3ax5ImO-21" edge="1">
          <mxGeometry relative="1" as="geometry">
            <mxPoint x="10" y="110" as="sourcePoint" />
            <mxPoint x="150" y="120" as="targetPoint" />
            <Array as="points">
              <mxPoint x="90" y="110" />
            </Array>
          </mxGeometry>
        </mxCell>
        <mxCell id="6XYIYXBxGy6aB3ax5ImO-23" value="" style="html=1;verticalAlign=bottom;endArrow=block;edgeStyle=elbowEdgeStyle;elbow=vertical;curved=0;rounded=0;" parent="1" source="aM9ryv3xv72pqoxQDRHE-1" target="CwJd92zBgyKHX__frGb2-6" edge="1">
          <mxGeometry relative="1" as="geometry">
            <mxPoint x="160" y="201.11" as="sourcePoint" />
            <Array as="points">
              <mxPoint x="260" y="201.11" />
            </Array>
            <mxPoint x="340" y="201.11" as="targetPoint" />
          </mxGeometry>
        </mxCell>
        <mxCell id="6XYIYXBxGy6aB3ax5ImO-26" value="" style="html=1;verticalAlign=bottom;labelBackgroundColor=none;endArrow=block;endFill=1;dashed=1;rounded=0;exitX=1;exitY=1;exitDx=0;exitDy=-5;exitPerimeter=0;" parent="1" source="SXcdiKqlx7OtoO0jn4dH-4" edge="1">
          <mxGeometry width="160" relative="1" as="geometry">
            <mxPoint x="250" y="650" as="sourcePoint" />
            <mxPoint x="765" y="655" as="targetPoint" />
          </mxGeometry>
        </mxCell>
        <mxCell id="6XYIYXBxGy6aB3ax5ImO-29" value="" style="group" parent="1" vertex="1" connectable="0">
          <mxGeometry x="120" y="550" width="240" height="210" as="geometry" />
        </mxCell>
        <mxCell id="6XYIYXBxGy6aB3ax5ImO-30" value="loop" style="shape=umlFrame;whiteSpace=wrap;html=1;pointerEvents=0;fontSize=8;width=40;height=20;" parent="6XYIYXBxGy6aB3ax5ImO-29" vertex="1">
          <mxGeometry x="16.551724137931036" y="11.666666666666666" width="223.44827586206895" height="198.33333333333334" as="geometry" />
        </mxCell>
        <mxCell id="6XYIYXBxGy6aB3ax5ImO-31" value="[until DA is registered in DR]" style="text;html=1;align=center;verticalAlign=middle;resizable=0;points=[];autosize=1;strokeColor=none;fillColor=none;fontSize=8;" parent="6XYIYXBxGy6aB3ax5ImO-29" vertex="1">
          <mxGeometry x="39.65517241379309" y="23.333333333333325" width="120" height="20" as="geometry" />
        </mxCell>
        <mxCell id="Eu3GBcsgDfkCTBm3hQhz-7" value="" style="html=1;verticalAlign=bottom;endArrow=block;curved=0;rounded=0;" parent="6XYIYXBxGy6aB3ax5ImO-29" source="CwJd92zBgyKHX__frGb2-45" edge="1">
          <mxGeometry relative="1" as="geometry">
            <mxPoint x="39.66" y="52.499999999999766" as="sourcePoint" />
            <mxPoint x="230" y="52.5" as="targetPoint" />
          </mxGeometry>
        </mxCell>
        <mxCell id="6XYIYXBxGy6aB3ax5ImO-39" value="ADD_HOST" style="edgeLabel;html=1;align=center;verticalAlign=middle;resizable=0;points=[];" parent="Eu3GBcsgDfkCTBm3hQhz-7" vertex="1" connectable="0">
          <mxGeometry x="0.28" y="1" relative="1" as="geometry">
            <mxPoint x="-30" y="2" as="offset" />
          </mxGeometry>
        </mxCell>
        <mxCell id="6XYIYXBxGy6aB3ax5ImO-36" value="" style="html=1;verticalAlign=bottom;endArrow=block;curved=0;rounded=0;entryX=0;entryY=0.5;entryDx=0;entryDy=0;" parent="1" source="CwJd92zBgyKHX__frGb2-45" target="CwJd92zBgyKHX__frGb2-49" edge="1">
          <mxGeometry relative="1" as="geometry">
            <mxPoint x="40" y="520" as="sourcePoint" />
            <mxPoint x="635" y="520" as="targetPoint" />
          </mxGeometry>
        </mxCell>
        <mxCell id="6XYIYXBxGy6aB3ax5ImO-37" value="" style="html=1;verticalAlign=bottom;endArrow=open;dashed=1;endSize=8;curved=0;rounded=0;entryX=1;entryY=1;entryDx=0;entryDy=-5;entryPerimeter=0;" parent="1" source="aM9ryv3xv72pqoxQDRHE-5" target="CwJd92zBgyKHX__frGb2-45" edge="1">
          <mxGeometry relative="1" as="geometry">
            <mxPoint x="250" y="730" as="targetPoint" />
            <mxPoint x="345" y="735" as="sourcePoint" />
          </mxGeometry>
        </mxCell>
      </root>
    </mxGraphModel>
  </diagram>
</mxfile>
